<svg viewBox="0 0 37 37" xmlns="http://www.w3.org/2000/svg"><path d="m18.5 1a17.5 17.5 0 1 0 17.5 17.5 17.51 17.51 0 0 0 -17.5-17.5zm7.25 23.69a.75.75 0 0 1 0 1.06.79.79 0 0 1 -.53.22.77.77 0 0 1 -.53-.22l-6.19-6.19-6.19 6.19a.77.77 0 0 1 -.53.22.79.79 0 0 1 -.53-.22.75.75 0 0 1 0-1.06l6.19-6.19-6.19-6.19a.75.75 0 0 1 1.06-1.06l6.19 6.19 6.19-6.19a.75.75 0 0 1 1.06 1.06l-6.19 6.19z" fill="#fff"/><circle cx="18.5" cy="18.5" fill="none" r="17.5" stroke="#fff" stroke-miterlimit="10" stroke-width="2"/></svg>