<svg height="17" viewBox="0 0 25 17" width="25" xmlns="http://www.w3.org/2000/svg"><g fill="none" fill-rule="evenodd"><path d="m.99623188 8.38723825c.00009894-.00060897.00039247-.00016992.00095535.00109231.00043441.00097413.00087319.00195378.00131635.00293892zm.05689407.11276175c.03075083.05666322.06926766.12240597.11500801.19559774.17732964.28375538.44233129.64695961.7675883 1.05061771.68836649.85429275 1.5664064 1.79307445 2.37879713 2.53347495 2.51633613 2.2926852 5.25447161 3.7203096 7.99317291 3.7203096 2.7605851 0 5.4956113-1.4013939 7.9951029-3.6512794 1.6048257-1.4444796 3.3125894-3.59684014 3.3125894-3.8487206s-1.7077637-2.40424098-3.3126108-3.84873991c-2.4994702-2.24986614-5.2344964-3.65126009-7.9950815-3.65126009-2.7387013 0-5.47683678 1.4276244-7.99306615 3.7202123-.81249749.74049785-1.6905374 1.6792795-2.37890389 2.53357225-.32525701.4036581-.59025866.76686233-.7675883 1.05061771-.04574035.07319177-.08425718.13893452-.11500801.19559774z" fill-rule="nonzero" stroke="#000" stroke-width="2"/><ellipse cx="12.5" cy="8.22" fill="#000" rx="3.5" ry="3.22"/></g></svg>