<svg viewBox="0 0 52 52" xmlns="http://www.w3.org/2000/svg"><path d="m37.54 1h-23.08a13.32 13.32 0 0 0 -13.46 13.18v23.64a13.36 13.36 0 0 0 13.46 13.18h23.08a13.36 13.36 0 0 0 13.46-13.18v-23.64a13.36 13.36 0 0 0 -13.46-13.18zm-13.95 39.47h-11.45a1 1 0 0 1 -1-1v-11.47a1 1 0 0 1 2 0v10l7-7a.5.5 0 0 1 .71 0 .48.48 0 0 1 0 .7l-6.77 6.77h9.5a1 1 0 1 1 0 2zm0-27.47h-10.45v.06l7.72 7.71a.5.5 0 0 1 0 .71.49.49 0 0 1 -.35.15.51.51 0 0 1 -.36-.15l-7-7v9a1 1 0 1 1 -2 0v-11.48a1 1 0 0 1 1-1h11.44a1 1 0 1 1 0 2zm17 26.47a1 1 0 0 1 -1 1h-11.42a1 1 0 0 1 0-2h10.45l-7.48-7.48a.5.5 0 0 1 0-.71.51.51 0 0 1 .71 0l6.77 6.72v-9a1 1 0 0 1 2 0zm0-16a1 1 0 0 1 -2 0v-9.47l-6.77 6.77a.5.5 0 0 1 -.36.14.47.47 0 0 1 -.35-.14.5.5 0 0 1 0-.71l7-7h-10a1 1 0 0 1 0-2h11.51a1 1 0 0 1 1 1z" fill="#fff"/><path d="m1 14.18v23.64a13.36 13.36 0 0 0 13.46 13.18h23.08a13.36 13.36 0 0 0 13.46-13.18v-23.64a13.36 13.36 0 0 0 -13.46-13.18h-23.08a13.32 13.32 0 0 0 -13.46 13.18z" fill="none" stroke="#fff" stroke-miterlimit="10" stroke-width="2"/></svg>