<svg viewBox="0 0 52.14 52.14" xmlns="http://www.w3.org/2000/svg"><path d="m1 14.4.14 23.6a13.37 13.37 0 0 0 13.54 13.1l23.08-.1a13.37 13.37 0 0 0 13.38-13.26l-.14-23.64a13.36 13.36 0 0 0 -13.54-13.1l-23.07.14a13.32 13.32 0 0 0 -13.39 13.26z" fill="none" stroke="#fff" stroke-miterlimit="10" stroke-width="2"/><g fill="#fff"><path d="m37.46 2-23.07.14a12.43 12.43 0 0 0 -8.87 3.7 12 12 0 0 0 -3.52 8.55l.14 23.61a12.34 12.34 0 0 0 12.46 12.14h.08l23.07-.14a12.34 12.34 0 0 0 12.39-12.25l-.14-23.65a12.3 12.3 0 0 0 -12.54-12.1zm-25.27 20.6 10.45-.06v-.06l-7.76-7.67a.5.5 0 1 1 .7-.71l7 7-.05-9a1 1 0 0 1 1-1 1 1 0 0 1 1 1l.07 11.44a1 1 0 0 1 -.29.71 1 1 0 0 1 -.71.3l-11.44.07a1 1 0 0 1 0-2zm11.56 18a1 1 0 0 1 -1-1l-.06-10-7 7.05a.47.47 0 0 1 -.35.15.46.46 0 0 1 -.35-.14.5.5 0 0 1 0-.71l6.73-6.81-9.5.06a1 1 0 0 1 -1-1 1 1 0 0 1 1-1l11.45-.07a1 1 0 0 1 1 1l.07 11.45a1 1 0 0 1 -.99.98zm3.41-28.5a1 1 0 0 1 1-1 1 1 0 0 1 1 1l.05 9.5 6.73-6.81a.5.5 0 0 1 .72.7l-7 7 10-.06a1 1 0 0 1 1 1 1 1 0 0 1 -1 1l-11.45.07a1 1 0 0 1 -.7-.29 1 1 0 0 1 -.3-.7zm12.55 16.9-10.45.07v.05l7.52 7.44a.49.49 0 0 1 0 .7.51.51 0 0 1 -.36.15.52.52 0 0 1 -.35-.14l-6.81-6.73.05 9a1 1 0 0 1 -1 1 1 1 0 0 1 -1-1l-.07-11.44a1 1 0 0 1 1-1l11.45-.1a1 1 0 0 1 0 2z"/><path d="m52 14.09a14.33 14.33 0 0 0 -14.46-14.09h-.09l-23.07.14a14.4 14.4 0 0 0 -10.28 4.29 14 14 0 0 0 -4.1 9.97l.14 23.6a14.35 14.35 0 0 0 14.46 14.14h.09l23.07-.14a14.34 14.34 0 0 0 14.38-14.27zm-14.24 36.91-23.08.14a13.37 13.37 0 0 1 -13.54-13.14l-.14-23.6a13.32 13.32 0 0 1 13.39-13.26l23.07-.14a13.36 13.36 0 0 1 13.54 13.1l.14 23.64a13.37 13.37 0 0 1 -13.38 13.26z"/></g></svg>