<svg viewBox="0 0 52.14 52.14" xmlns="http://www.w3.org/2000/svg"><g fill="none" stroke="#fff"><path d="m1 14.4.14 23.6a13.37 13.37 0 0 0 13.54 13.1l23.08-.1a13.37 13.37 0 0 0 13.38-13.26l-.14-23.64a13.36 13.36 0 0 0 -13.54-13.1l-23.08.14a13.32 13.32 0 0 0 -13.38 13.26z" stroke-miterlimit="10" stroke-width="2"/><g stroke-linecap="round"><path d="m23.4 28.14-8.04 8.14" stroke-miterlimit="10"/><path d="m23.74 39.56-.07-11.45-11.44.07" stroke-linejoin="round" stroke-width="2"/><path d="m28.29 28.88 8.14 8.04" stroke-miterlimit="10"/><path d="m39.7 28.01-11.45.07.07 11.45" stroke-linejoin="round" stroke-width="2"/><path d="m28.25 23.23 8.05-8.14" stroke-miterlimit="10"/><path d="m28.16 12.06.07 11.44 11.44-.07" stroke-linejoin="round" stroke-width="2"/><path d="m23.37 22.5-8.14-8.05" stroke-miterlimit="10"/><path d="m12.2 23.6 11.45-.07-.07-11.45" stroke-linejoin="round" stroke-width="2"/></g></g></svg>