<svg height="52" viewBox="0 0 52 52" width="52" xmlns="http://www.w3.org/2000/svg"><g fill="none" fill-rule="evenodd" stroke="#fff"><path d="m1 14.1786784v23.6427035c0 7.2460508 6.06392294 13.1786181 13.4632224 13.1786181h23.0735552c7.3992995 0 13.4632224-5.9325673 13.4632224-13.1786181v-23.6427035c0-7.24605074-6.0639229-13.17861801-13.4632224-13.17861801h-23.0735552c-7.42119088-.02189139-13.4632224 5.91067587-13.4632224 13.17861801z" stroke-width="2"/><g stroke-linecap="round" transform="translate(12 12)"><path d="m-1.26315789 23.3960203h11.44736839" transform="matrix(.70710678 -.70710678 .70710678 .70710678 -15.237027 10.006604)"/><path d="m17.8157895 4.31707298h11.4473684" transform="matrix(-.70710678 .70710678 -.70710678 -.70710678 43.237027 -9.275217)"/><path d="m.14345334 16.0263158v11.4473684h11.44736846" stroke-linejoin="round" stroke-width="2"/><path d="m16.1697691 0v11.4473684h11.4473684" stroke-linejoin="round" stroke-width="2" transform="matrix(-1 0 0 -1 43.786906 11.447368)"/><path d="m17.8157895 22.6328625h11.4473684" transform="matrix(-.70710678 -.70710678 .70710678 -.70710678 24.180545 55.281634)"/><path d="m-1.26315789 5.08023087h11.44736839" transform="matrix(.70710678 .70710678 -.70710678 .70710678 4.898724 -1.666103)"/><g stroke-linejoin="round" stroke-width="2"><path d="m16.1697691 16.0263158v11.4473684h11.4473684" transform="matrix(0 -1 1 0 .143453 43.643453)"/><path d="m.14345334 0v11.4473684h11.44736846" transform="matrix(0 1 -1 0 11.590822 -.143454)"/></g></g></g></svg>