<svg viewBox="0 0 52 52" xmlns="http://www.w3.org/2000/svg"><g fill="#fff"><path d="m32.46 13h-12.94a6.56 6.56 0 0 0 -4.65 1.91 6.27 6.27 0 0 0 -1.87 4.47v13.24a6.47 6.47 0 0 0 6.54 6.38h12.92a6.47 6.47 0 0 0 6.54-6.38v-13.24a6.47 6.47 0 0 0 -6.54-6.38zm-7 20a7.5 7.5 0 1 1 7.54-7.5 7.49 7.49 0 0 1 -7.5 7.5zm8-13a1.5 1.5 0 1 1 1.54-1.5 1.5 1.5 0 0 1 -1.5 1.5z" fill-rule="evenodd"/><circle cx="25.5" cy="25.5" r="6.5"/><path d="m37.54 1h-23.08a13.32 13.32 0 0 0 -13.46 13.18v23.64a13.36 13.36 0 0 0 13.46 13.18h23.08a13.36 13.36 0 0 0 13.46-13.18v-23.64a13.36 13.36 0 0 0 -13.46-13.18zm3.46 31.62a8.47 8.47 0 0 1 -8.54 8.38h-12.92a8.47 8.47 0 0 1 -8.54-8.38v-13.24a8.24 8.24 0 0 1 2.46-5.88 8.5 8.5 0 0 1 6.05-2.5h13a8.47 8.47 0 0 1 8.49 8.38z" fill-rule="evenodd"/></g><path d="m1 14.18v23.64a13.36 13.36 0 0 0 13.46 13.18h23.08a13.36 13.36 0 0 0 13.46-13.18v-23.64a13.36 13.36 0 0 0 -13.46-13.18h-23.08a13.32 13.32 0 0 0 -13.46 13.18z" fill="none" stroke="#fff" stroke-miterlimit="10" stroke-width="2"/></svg>