<svg height="52" viewBox="0 0 52 52" width="52" xmlns="http://www.w3.org/2000/svg"><g fill="none" fill-rule="evenodd"><g stroke="#fff"><path d="m1 14.1786784v23.6427035c0 7.2460508 6.06392294 13.1786181 13.4632224 13.1786181h23.0735552c7.3992995 0 13.4632224-5.9325673 13.4632224-13.1786181v-23.6427035c0-7.24605074-6.0639229-13.17861801-13.4632224-13.17861801h-23.0735552c-7.42119088-.02189139-13.4632224 5.91067587-13.4632224 13.17861801z" stroke-width="2"/><path d="m12 19.3800599v13.239914c0 4.0577884 3.3957968 7.3800261 7.5394046 7.3800261h12.9211908c4.1436078 0 7.5394046-3.3222377 7.5394046-7.3800261v-13.239914c0-4.0577884-3.3957968-7.3800261-7.5394046-7.3800261h-12.9211908c-4.1558669-.0122592-7.5394046 3.3099785-7.5394046 7.3800261z" stroke-width="2"/><path d="m25.5 18.5c-3.8665243 0-7 3.1389549-7 7 0 3.8750472 3.1257495 7 7 7 3.8665243 0 7-3.1389549 7-7s-3.1334757-7-7-7z" fill-rule="nonzero"/></g><circle cx="33.5" cy="18.5" fill="#fff" r="1.5"/></g></svg>