<svg height="16" viewBox="0 0 19 16" width="19" xmlns="http://www.w3.org/2000/svg"><g fill-rule="evenodd" transform="matrix(-1 0 0 -1 20 17)"><path d="m5.26161381 1.2970688c.00132374-.72143397.58390243-1.30733873 1.29714061-1.30864743l.03070475-.00005634c.71506725-.00131205 1.29368602.57410393 1.29234695 1.30389607l-.01841993 10.0388641c-.00132374.721434-.58390243 1.3073388-1.29714061 1.3086474l-.03070475.0000564c-.71506725.001312-1.29368602-.5741039-1.29234695-1.3038961z" transform="matrix(.70710678 .70710678 -.70710678 .70710678 6.386853 -2.791032)"/><path d="m13.1365659 1.29033159c.0013168-.71767975.5838899-1.30054112 1.2971281-1.30184982l.0307048-.00005634c.7150672-.00131205 1.2936915.57110403 1.2923594 1.29709847l-.0183241 9.9866237c-.0013168.7176797-.5838899 1.3005411-1.2971281 1.3018498l-.0307048.0000563c-.7150672.0013121-1.2936915-.571104-1.2923594-1.2970984z" transform="matrix(.70710678 -.70710678 -.70710678 -.70710678 8.670153 20.931602)"/><rect height="15.692308" rx="1.3125" transform="matrix(-1 0 0 -1 21 18.307692)" width="2.625" x="9.1875" y="1.307692"/></g></svg>