<svg height="24" viewBox="0 0 30 24" width="30" xmlns="http://www.w3.org/2000/svg"><g fill-rule="evenodd" stroke="#000" stroke-width=".5" transform="translate(1 1)"><path d="m12.5246813 18.0523806c-1.2237152 0-2.2269978 1.0135013-2.2269978 2.2429152 0 1.229382 1.0032826 2.2429153 2.2269978 2.2429153 1.2237155 0 2.2269981-1.0135333 2.2269981-2.2429153 0-1.2294139-1.0032826-2.2429152-2.2269981-2.2429152zm0 1.2779694c.5297367 0 .9540758.4261069.9540758.9649458 0 .538807-.4243391.9652653-.9540758.9652653-.5297365 0-.9544274-.4264583-.9544274-.9652653 0-.5388389.4246909-.9649458.9544274-.9649458z"/><path d="m20.1019735 18.0523806c-1.2237152 0-2.2269991 1.0135013-2.2269991 2.2429152 0 1.229382 1.0032839 2.2429153 2.2269991 2.2429153s2.2269981-1.0135333 2.2269981-2.2429153c0-1.2294139-1.0032829-2.2429152-2.2269981-2.2429152zm0 1.2779694c.5297377 0 .9544274.4261069.9544274.9649458 0 .538807-.4246897.9652653-.9544274.9652653s-.9540755-.4264583-.9540755-.9652653c0-.5388389.4243378-.9649458.9540755-.9649458z"/><path d="m.61353285.05428c-.80485109.01792083-.76717964 1.27236639 0 1.27797583h5.3302101c1.02657419 3.67256973 2.06708537 7.33375125 3.10462155 11.01433587-.45361241.1323139-.83963282.3705875-1.12741586.6812791-.45135746.4872486-.66398023 1.1221125-.65883269 1.7469778.00514819.6248653.227542 1.2562792.68279019 1.7402695.45524945.4840222 1.14699454.7944583 1.96205641.7944583h13.36375315c.1666251 0 .3322244-.0688722.4500462-.1871625s.1864148-.2845292.1864148-.4518222c0-.1672931-.068593-.3335639-.1864148-.4518542-.1178218-.1182583-.2834211-.1871306-.4500462-.1871306h-13.36375315c-.51255241 0-.8213065-.1648972-1.03651769-.3936833-.2152115-.228818-.33307718-.5481347-.33575818-.8736805-.00267273-.3255459.10921623-.6407098.31814205-.8662375.20892613-.2255598.51272645-.3901695 1.02911995-.3901695h14.54119802c.1358038-.0000958.2712112-.0452014.3800812-.1267236.1088688-.0814903.1906043-.1988861.2294279-.3295389l2.9182449-9.81349943c.1164438-.45072653-.185639-.83402473-.6095081-.82168139h-19.7692371l-.53481909-1.89697611c-.08438373-.33422834-.2952915-.45218-.61232659-.46513667zm7.31868992 3.63973403h3.42981103v8.53585267h-1.0238347zm4.70273333 0h2.3718011v8.53585267h-2.3718011zm3.6447247 0h2.4845427v8.53585267h-2.4845427zm3.7574663 0h2.1590014v8.53585267h-2.1590014zm3.4315722 0h3.0183029l-2.538095 8.53585267h-.4802079z"/></g></svg>