<svg height="52" viewBox="0 0 52 52" width="52" xmlns="http://www.w3.org/2000/svg"><g fill="none" fill-rule="evenodd" stroke="#fff"><path d="m1 14.1786784v23.6427035c0 7.2460508 6.06392294 13.1786181 13.4632224 13.1786181h23.0735552c7.3992995 0 13.4632224-5.9325673 13.4632224-13.1786181v-23.6427035c0-7.24605074-6.0639229-13.17861801-13.4632224-13.17861801h-23.0735552c-7.42119088-.02189139-13.4632224 5.91067587-13.4632224 13.17861801z" stroke-width="2"/><g transform="translate(12 13)"><g stroke-width="2"><ellipse cx="4.490566" cy="21.489796" rx="4.490566" ry="4.510204"/><ellipse cx="22.981132" cy="19.897959" rx="4.490566" ry="4.510204"/><path d="m8.98113208 20.1632653v-13.17640806c0-2.48708949 1.82798592-4.59607888 4.28986312-4.94931366l8.4905661-1.2182424c2.7334304-.39219774 5.2672527 1.50574636 5.6594505 4.23917682.0337479.23520718.0506863.47252089.0506863.71013684v14.39465046"/></g><path d="m8.98113208 7.95918367 18.80424962-2.86158847" stroke-linecap="square"/></g><path d="m26.5 6v40" stroke-linecap="round" stroke-width="3" transform="matrix(.70710678 .70710678 -.70710678 .70710678 26.146447 -11.123106)"/></g></svg>