<svg viewBox="0 0 52 52" xmlns="http://www.w3.org/2000/svg"><path d="m1 14.18v23.64a13.36 13.36 0 0 0 13.46 13.18h23.08a13.36 13.36 0 0 0 13.46-13.18v-23.64a13.36 13.36 0 0 0 -13.46-13.18h-23.08a13.32 13.32 0 0 0 -13.46 13.18z" fill="none" stroke="#fff" stroke-miterlimit="10" stroke-width="2"/><g fill="#fff"><path d="m36.87 15.57a4 4 0 0 0 -3-.76l-8.46 1.19a4 4 0 0 0 -3.41 4v.31l16.36-2.49a4 4 0 0 0 -1.49-2.25z"/><path d="m37.54 1h-23.08a13.32 13.32 0 0 0 -13.46 13.18v23.64a13.36 13.36 0 0 0 13.46 13.18h23.08a13.36 13.36 0 0 0 13.46-13.18v-23.64a13.36 13.36 0 0 0 -13.46-13.18zm2.93 32.16a5.49 5.49 0 1 1 -5.47-5.77 5.42 5.42 0 0 1 3.49 1.26v-9.85l-16.49 2.51v13.18a5.49 5.49 0 1 1 -5.51-5.49 5.42 5.42 0 0 1 3.51 1.24v-10.24a6 6 0 0 1 5.15-5.94l8.49-1.22a6 6 0 0 1 6.85 5.94z"/><path d="m16.49 31a3.51 3.51 0 1 0 3.51 3.49 3.5 3.5 0 0 0 -3.51-3.49z"/><path d="m35 29.39a3.51 3.51 0 1 0 3.49 3.51 3.5 3.5 0 0 0 -3.49-3.51z"/></g></svg>