<svg viewBox="0 0 52 52" xmlns="http://www.w3.org/2000/svg"><g fill="#fff"><path d="m33.9 14.81-8.49 1.19a4 4 0 0 0 -3.41 4v.31l9.55-1.45 3.95-4a3.79 3.79 0 0 0 -1.6-.05z"/><path d="m21.98 28.4 8.36-8.36-8.36 1.27z"/><path d="m16.49 31a3.49 3.49 0 0 0 -2.74 5.65l4.89-4.89a3.47 3.47 0 0 0 -2.15-.76z"/><path d="m20 34.66-3.36 3.34a3.49 3.49 0 0 0 3.36-3.34z"/><path d="m36.53 18.09 1.81-.28a4 4 0 0 0 -.44-1.09z"/><path d="m37.54 1h-23.08a13.32 13.32 0 0 0 -13.46 13.18v23.64a13.36 13.36 0 0 0 13.46 13.18h23.08a13.36 13.36 0 0 0 13.46-13.18v-23.64a13.36 13.36 0 0 0 -13.46-13.18zm4.16 11.92-2.36 2.36a5.89 5.89 0 0 1 1.07 2.64 6 6 0 0 1 .06.85v14.39a5.49 5.49 0 1 1 -5.47-5.77 5.42 5.42 0 0 1 3.49 1.26v-9.85l-3.13.48-13.36 13.36v1.85a5.5 5.5 0 0 1 -5.51 5.51 5.43 5.43 0 0 1 -1.62-.25l-1.45 1.45a1.47 1.47 0 0 1 -1.06.44 1.45 1.45 0 0 1 -1.06-.44 1.49 1.49 0 0 1 0-2.12l1-1a5.5 5.5 0 0 1 4.19-9.08 5.42 5.42 0 0 1 3.51 1.24v-10.24a6 6 0 0 1 5.15-5.94l8.49-1.22a6 6 0 0 1 3.41.52l2.55-2.55a1.5 1.5 0 1 1 2.12 2.12z"/><path d="m35 29.39a3.51 3.51 0 1 0 3.49 3.51 3.5 3.5 0 0 0 -3.49-3.51z"/></g><path d="m1 14.18v23.64a13.36 13.36 0 0 0 13.46 13.18h23.08a13.36 13.36 0 0 0 13.46-13.18v-23.64a13.36 13.36 0 0 0 -13.46-13.18h-23.08a13.32 13.32 0 0 0 -13.46 13.18z" fill="none" stroke="#fff" stroke-miterlimit="10" stroke-width="2"/></svg>