<svg viewBox="0 0 52 52" xmlns="http://www.w3.org/2000/svg"><path d="m1 14.18v23.64a13.36 13.36 0 0 0 13.46 13.18h23.08a13.36 13.36 0 0 0 13.46-13.18v-23.64a13.36 13.36 0 0 0 -13.46-13.18h-23.08a13.32 13.32 0 0 0 -13.46 13.18z" fill="none" stroke="#fff" stroke-miterlimit="10" stroke-width="2"/><g fill="#fff"><path d="m36.17 25.65-17.17-10.45a1.07 1.07 0 0 0 -.52-.14 1 1 0 0 0 -1 1v20.88a1 1 0 0 0 .76 1 1 1 0 0 0 .76-.14l17.17-10.45a.9.9 0 0 0 .34-.33 1 1 0 0 0 -.34-1.37z"/><path d="m37.54 1h-23.08a13.32 13.32 0 0 0 -13.46 13.18v23.64a13.36 13.36 0 0 0 13.46 13.18h23.08a13.36 13.36 0 0 0 13.46-13.18v-23.64a13.36 13.36 0 0 0 -13.46-13.18zm.68 27.06a2.93 2.93 0 0 1 -1 1l-17.16 10.44a3 3 0 0 1 -1.55.44 3.53 3.53 0 0 1 -.72-.08 3 3 0 0 1 -2.29-2.92v-20.88a3 3 0 0 1 3-3 3 3 0 0 1 1.56.44l17.15 10.44a3 3 0 0 1 1.01 4.12z"/></g></svg>