<svg height="52" viewBox="0 0 52 52" width="52" xmlns="http://www.w3.org/2000/svg"><g fill="none" fill-rule="evenodd" stroke="#fff" stroke-width="2"><path d="m1 14.1786784v23.6427035c0 7.2460508 6.06392294 13.1786181 13.4632224 13.1786181h23.0735552c7.3992995 0 13.4632224-5.9325673 13.4632224-13.1786181v-23.6427035c0-7.24605074-6.0639229-13.17861801-13.4632224-13.17861801h-23.0735552c-7.42119088-.02189139-13.4632224 5.91067587-13.4632224 13.17861801z"/><path d="m29.7083971 17.8066524 10.4412327 17.1534537c.5743175.9435217.2750185 2.1739735-.6685032 2.748291-.3133316.1907236-.6730804.2916029-1.0398939.2916029h-20.8824654c-1.1045695 0-2-.8954305-2-2 0-.3668135.1008793-.7265623.2916029-1.0398939l10.4412327-17.1534537c.5743175-.9435217 1.8047693-1.2428208 2.748291-.6685032.2730564.1662082.502295.3954468.6685032.6685032z" stroke-linecap="round" stroke-linejoin="round" transform="matrix(0 1 -1 0 54.5 -1.5)"/></g></svg>