<?xml version="1.0" standalone="no"?>
<!DOCTYPE svg PUBLIC "-//W3C//DTD SVG 20010904//EN"
 "http://www.w3.org/TR/2001/REC-SVG-20010904/DTD/svg10.dtd">
<svg version="1.0" xmlns="http://www.w3.org/2000/svg"
 width="512.000000pt" height="512.000000pt" viewBox="0 0 512.000000 512.000000"
 preserveAspectRatio="xMidYMid meet">
<metadata>
Created by potrace 1.11, written by Peter Selinger 2001-2013
</metadata>
<g transform="translate(0.000000,512.000000) scale(0.100000,-0.100000)"
fill="#000000" stroke="none">
<path d="M2506 5049 c-10 -6 -66 -14 -125 -16 -58 -3 -113 -11 -121 -17 -18
-14 -70 -21 -70 -9 0 7 -69 9 -77 2 -2 -1 -6 -2 -10 -4 -5 -1 -17 -5 -28 -9
-11 -4 -33 -13 -49 -19 -16 -6 -43 -11 -60 -12 -45 -3 -86 -16 -86 -28 0 -6
-3 -7 -7 -4 -3 4 -12 2 -19 -3 -6 -6 -16 -10 -20 -9 -20 5 -100 -24 -130 -48
-18 -13 -38 -22 -44 -18 -5 3 -10 1 -10 -4 0 -6 -9 -11 -20 -11 -11 0 -20 -4
-20 -9 0 -7 -53 -24 -137 -44 -7 -2 -23 -12 -35 -24 -13 -11 -43 -31 -68 -44
-25 -13 -48 -28 -52 -34 -4 -5 -8 -7 -8 -2 0 4 -19 -6 -42 -23 -22 -16 -47
-30 -55 -30 -16 0 -24 -7 -89 -68 -25 -24 -51 -41 -59 -39 -7 3 -21 -3 -31
-14 -9 -10 -13 -19 -9 -19 4 0 0 -9 -10 -20 -10 -11 -26 -20 -36 -20 -18 0
-99 -74 -99 -91 0 -4 -18 -25 -41 -46 -84 -78 -95 -89 -124 -127 -47 -61 -97
-120 -105 -126 -4 -3 -18 -25 -31 -50 -12 -25 -32 -54 -43 -65 -12 -11 -32
-45 -46 -75 -26 -57 -34 -69 -61 -98 -10 -9 -23 -36 -29 -59 -7 -23 -17 -40
-21 -37 -5 3 -6 -2 -3 -10 4 -10 -7 -28 -27 -48 -25 -25 -32 -41 -31 -65 2
-17 -3 -37 -11 -45 -15 -16 -47 -81 -47 -98 0 -6 -7 -24 -14 -39 -8 -15 -16
-39 -18 -53 -2 -14 -11 -36 -20 -50 -10 -16 -17 -44 -16 -71 0 -25 -7 -60 -17
-78 -9 -19 -19 -45 -22 -59 -9 -44 -11 -55 -13 -55 -2 0 -10 -165 -10 -220 0
-27 0 -56 0 -62 -1 -63 -5 -113 -10 -113 -7 0 -14 -97 -13 -168 0 -18 8 -41
17 -51 10 -11 13 -21 8 -24 -11 -7 -6 -71 8 -96 16 -31 12 -68 -14 -105 -13
-19 -33 -73 -44 -120 -12 -47 -30 -95 -41 -107 -22 -24 -36 -70 -33 -109 4
-58 3 -158 -1 -192 -3 -21 0 -44 7 -52 14 -20 56 -10 57 13 1 9 3 30 5 46 9
76 10 123 2 158 -8 38 -7 43 46 144 10 18 19 44 20 58 6 60 35 28 43 -47 3
-29 10 -59 17 -67 8 -12 8 -13 -2 -7 -11 7 -11 4 0 -13 7 -12 16 -21 19 -21 8
0 16 -30 24 -86 7 -42 35 -126 45 -134 14 -10 30 -50 36 -86 9 -55 22 -86 51
-116 14 -14 25 -29 24 -32 -3 -18 1 -27 23 -53 13 -16 26 -38 28 -48 1 -11 6
-22 9 -25 3 -3 15 -26 26 -51 12 -25 49 -74 83 -108 33 -34 58 -66 55 -71 -4
-6 -1 -10 5 -10 6 0 9 -4 6 -8 -7 -12 6 -28 40 -45 17 -9 31 -23 32 -31 1 -9
3 -23 4 -31 1 -8 10 -17 20 -21 10 -3 24 -11 30 -17 7 -7 26 -20 41 -30 15
-10 33 -30 40 -45 19 -43 57 -81 132 -130 38 -25 86 -63 106 -84 20 -21 41
-38 48 -38 6 0 27 -16 45 -35 19 -19 43 -35 54 -35 11 0 29 -11 40 -25 11 -14
24 -25 29 -25 5 0 20 -11 33 -25 13 -14 38 -28 57 -31 18 -3 38 -14 43 -23 5
-9 10 -13 10 -8 0 4 13 1 29 -7 16 -9 31 -13 33 -10 5 5 26 -3 93 -32 17 -7
43 -25 59 -40 19 -18 42 -28 68 -30 26 -2 47 -11 59 -25 11 -13 27 -24 37 -25
78 -11 110 -17 201 -40 57 -14 114 -24 127 -21 13 2 24 1 24 -2 0 -3 15 -5 32
-5 18 1 44 -4 58 -11 44 -22 151 -35 215 -26 35 5 73 4 94 -1 21 -6 71 -7 121
-3 47 5 105 7 129 6 24 -1 49 3 55 8 6 5 14 10 19 10 4 1 8 1 10 2 1 1 18 3
37 4 19 2 60 11 90 20 30 8 73 15 95 13 24 -1 51 5 67 16 23 15 50 22 118 30
8 1 25 7 38 14 13 8 30 11 37 8 8 -3 17 -1 20 3 3 5 28 12 56 16 58 8 130 37
174 70 50 37 166 105 180 105 14 0 107 40 115 49 3 3 10 7 17 8 22 5 85 52
141 109 71 71 118 107 145 111 21 3 57 30 57 43 0 3 43 51 95 106 52 54 95
104 95 111 0 6 38 49 84 95 87 88 120 136 125 181 0 8 13 20 27 27 15 9 37 39
54 75 16 33 40 75 54 94 14 19 26 41 26 47 0 7 9 28 19 46 11 18 21 49 23 68
1 19 10 43 19 53 9 9 22 43 29 75 14 65 26 92 49 109 9 7 12 13 7 13 -5 0 -4
6 2 13 13 15 41 173 38 212 -3 37 13 94 32 118 8 9 13 17 10 17 -4 0 0 20 7
45 9 28 10 47 4 50 -5 4 -7 11 -4 16 4 5 2 9 -4 9 -11 0 -7 31 7 56 5 8 6 35
2 59 -4 24 -3 42 1 39 20 -12 18 103 -4 249 -2 15 0 27 4 27 15 0 10 48 -5 53
-8 3 -15 14 -15 24 0 10 -2 38 -5 63 -3 25 -8 68 -11 95 -3 28 -10 65 -16 83
-6 19 -12 59 -14 90 -1 32 -3 57 -4 57 -2 0 -4 7 -6 16 -1 9 -10 32 -19 51 -9
19 -18 50 -21 69 -2 20 -11 49 -20 65 -8 16 -15 33 -15 37 0 4 -10 29 -21 55
-12 26 -24 63 -27 82 -2 19 -15 45 -28 57 -13 12 -26 33 -30 47 -3 14 -9 26
-13 26 -5 0 -20 23 -35 50 -15 28 -31 50 -35 50 -4 0 -7 12 -6 28 0 15 -8 36
-19 47 -10 11 -23 32 -30 46 -15 36 -52 83 -111 145 -30 31 -51 62 -53 77 -1
16 -23 47 -54 80 -68 69 -78 83 -70 93 4 4 2 4 -5 0 -6 -3 -18 2 -25 11 -7 10
-30 29 -50 43 -21 14 -38 28 -38 32 0 19 -85 87 -116 92 -24 5 -34 12 -34 26
0 22 -45 60 -71 60 -10 0 -25 13 -33 28 -11 21 -31 34 -80 51 -36 13 -66 26
-66 30 0 4 -16 13 -35 20 -19 7 -35 17 -35 22 0 5 -7 9 -15 9 -8 0 -20 9 -27
21 -16 25 -73 56 -119 64 -19 3 -45 16 -59 29 -33 30 -74 46 -115 46 -38 0
-81 16 -108 41 -11 10 -37 16 -70 17 -28 0 -65 5 -80 11 -16 6 -42 11 -58 11
-16 0 -29 4 -29 9 0 11 -49 23 -100 25 -19 1 -41 6 -49 10 -10 7 -12 6 -6 -4
6 -10 4 -11 -6 -4 -8 4 -23 9 -34 10 -11 1 -33 7 -50 14 -28 12 -115 22 -175
20 -71 -3 -138 -1 -165 4 -16 4 -38 1 -49 -5z"/>
</g>
</svg>
